<svg width="19" height="18" viewBox="0 0 19 18" fill="none" xmlns="http://www.w3.org/2000/svg">
<path fill-rule="evenodd" clip-rule="evenodd" d="M13.8532 10.7865C13.6162 10.6748 12.454 10.1363 12.2376 10.0613C12.0212 9.98701 11.8637 9.95026 11.7054 10.1738C11.5479 10.3958 11.0953 10.8983 10.9577 11.0468C10.8193 11.196 10.6817 11.214 10.4454 11.103C10.2091 10.9905 9.44708 10.7558 8.54421 9.99676C7.84181 9.40577 7.36691 8.67602 7.22929 8.45252C7.09167 8.22977 7.21418 8.10902 7.3327 7.99802C7.4393 7.89827 7.56896 7.73777 7.68748 7.60802C7.80601 7.47752 7.84499 7.38452 7.92374 7.23527C8.00329 7.08677 7.96351 6.95702 7.90385 6.84527C7.84499 6.73352 7.37248 5.63627 7.1752 5.19002C6.98349 4.75577 6.7886 4.81502 6.64382 4.80752C6.50541 4.80152 6.3479 4.80002 6.1904 4.80002C6.03289 4.80002 5.77675 4.85552 5.56038 5.07902C5.34321 5.30177 4.73308 5.84102 4.73308 6.93827C4.73308 8.03477 5.57947 9.09452 5.698 9.24376C5.81652 9.39227 7.36452 11.6438 9.73584 12.609C10.3006 12.8385 10.7405 12.9758 11.0834 13.0778C11.6498 13.248 12.1652 13.224 12.5725 13.1663C13.0259 13.1025 13.971 12.627 14.1682 12.1065C14.3647 11.586 14.3647 11.1398 14.3058 11.0468C14.247 10.9538 14.0895 10.8983 13.8524 10.7865H13.8532ZM9.54015 16.3388H9.53697C8.12852 16.339 6.74594 15.982 5.53413 15.3053L5.24776 15.1448L2.27109 15.8813L3.06577 13.1453L2.87883 12.8648C2.09142 11.683 1.67471 10.3153 1.67686 8.91977C1.67846 4.83227 5.2056 1.50678 9.54333 1.50678C11.6434 1.50678 13.6178 2.27928 15.1021 3.68027C15.8343 4.36771 16.4146 5.1852 16.8094 6.08544C17.2043 6.98569 17.4059 7.95083 17.4026 8.92502C17.401 13.0125 13.8739 16.3388 9.54015 16.3388ZM16.2317 2.61603C15.3552 1.78422 14.3124 1.12468 13.1636 0.67563C12.0148 0.226578 10.7829 -0.00305718 9.53935 3.07331e-05C4.3258 3.07331e-05 0.0811386 4.00127 0.0795476 8.91902C0.0771318 10.4841 0.512585 12.022 1.34197 13.3778L0 18L5.01468 16.7595C6.40189 17.4721 7.95643 17.8455 9.53617 17.8455H9.54015C14.7537 17.8455 18.9984 13.8443 19 8.92577C19.0038 7.75372 18.7611 6.59259 18.286 5.50955C17.8108 4.4265 17.1126 3.44303 16.2317 2.61603Z" fill="white"/>
</svg>
