<svg width="19" height="17" viewBox="0 0 19 17" fill="none" xmlns="http://www.w3.org/2000/svg">
<path d="M8.99994 0.0019856C7.39342 0.0184568 3.93953 0.242678 2.0077 1.74794C0.570721 2.95725 0.0689967 4.74518 0.0101911 6.95604C-0.038605 9.15894 -0.0974106 13.2959 4.59765 14.4223V16.138C4.59765 16.138 4.56825 16.8244 5.1025 16.9653C5.76062 17.1422 6.13535 16.614 6.76094 16.0466L7.92767 14.926C11.1401 15.1529 13.6005 14.6301 13.8839 14.5525C14.5358 14.3755 18.2074 13.977 18.8073 9.83957C19.4229 5.56661 18.5077 2.87436 16.8555 1.65655H16.8455C16.3469 1.26655 14.3431 0.0264268 9.86638 0.0126122C9.86638 0.0126122 9.53419 -0.00598437 8.99994 0.0019856ZM9.05499 1.20332C9.51104 1.20067 9.78818 1.21714 9.78818 1.21714C13.5774 1.22564 15.386 2.19426 15.8126 2.52049C17.2039 3.53321 17.9209 5.96033 17.396 9.52768C16.8974 12.9866 13.9196 13.2056 13.3684 13.3549C13.1338 13.4186 10.9668 13.8724 8.23671 13.7231C8.23671 13.7231 6.20354 15.807 5.56794 16.3436C5.46722 16.4376 5.34961 16.4653 5.27454 16.4515C5.16694 16.4291 5.13441 16.316 5.14066 16.1608L5.16006 13.3134C1.17817 12.3783 1.41277 8.84971 1.45531 7.00652C1.5041 5.16333 1.91136 3.65542 3.12376 2.6342C4.75592 1.38079 7.6887 1.21183 9.05374 1.20332H9.05499ZM9.35527 3.04598C9.3225 3.0457 9.28998 3.05093 9.2596 3.06137C9.22922 3.07181 9.20158 3.08726 9.17826 3.10682C9.15494 3.12638 9.13641 3.14966 9.12373 3.17533C9.11106 3.201 9.10449 3.22855 9.10441 3.25639C9.10441 3.3754 9.21827 3.46945 9.35527 3.46945C9.97555 3.45943 10.592 3.55381 11.1691 3.74714C11.7463 3.94047 12.2726 4.22892 12.7178 4.59587C13.6268 5.34558 14.0697 6.35298 14.0866 7.67015C14.0866 7.78651 14.1973 7.88321 14.3375 7.88321V7.87471C14.4035 7.87486 14.467 7.85282 14.5139 7.81341C14.5609 7.77399 14.5877 7.7204 14.5883 7.66431C14.6187 7.04432 14.5003 6.42557 14.2404 5.84565C13.9805 5.26573 13.5844 4.73676 13.0763 4.29089C12.086 3.46892 10.831 3.04545 9.35527 3.04545V3.04598ZM6.05778 3.53321C5.8807 3.51123 5.70011 3.54142 5.54605 3.61875H5.53291C5.17524 3.79682 4.85303 4.02189 4.57826 4.28557C4.34992 4.5098 4.22605 4.73667 4.19352 4.95505C4.17413 5.08523 4.18726 5.2154 4.23293 5.33973L4.2492 5.34824C4.50631 5.99008 4.84226 6.60749 5.25265 7.18877C5.78128 8.0054 6.43185 8.76064 7.18822 9.43576L7.21074 9.46339L7.2464 9.48571L7.26892 9.50802L7.2952 9.52715C8.09297 10.1714 8.98435 10.7266 9.94771 11.1791C11.0487 11.6881 11.7169 11.9288 12.1179 12.0287V12.034C12.2355 12.0643 12.3425 12.0781 12.4501 12.0781C12.7918 12.0568 13.1154 11.939 13.3691 11.7433C13.6781 11.5099 13.9402 11.2351 14.1448 10.9299V10.9246C14.3369 10.6174 14.2718 10.3268 13.9947 10.1302C13.4396 9.71816 12.8395 9.35218 12.2023 9.03727C11.7757 8.84067 11.3421 8.95969 11.1664 9.15894L10.7916 9.56009C10.5996 9.75934 10.2505 9.73171 10.2505 9.73171L10.2405 9.73703C7.6374 9.17222 6.94299 6.93373 6.94299 6.93373C6.94299 6.93373 6.91046 6.62927 7.15131 6.47413L7.62051 6.1532C7.84509 5.99805 8.00149 5.63037 7.76064 5.26747C7.39242 4.7256 6.96245 4.21573 6.47693 3.74521C6.37078 3.63428 6.22187 3.55881 6.05653 3.53215L6.05778 3.53321ZM9.78818 4.16443C9.45599 4.16443 9.45599 4.59056 9.79131 4.59056C10.2044 4.59625 10.6121 4.67102 10.9911 4.8106C11.3701 4.95018 11.713 5.15183 12.0003 5.40403C12.2623 5.64951 12.4636 5.93715 12.5924 6.24993C12.7211 6.5627 12.7746 6.89424 12.7497 7.2249C12.7509 7.28086 12.7778 7.33421 12.8247 7.37354C12.8715 7.41286 12.9347 7.43503 13.0006 7.4353L13.0106 7.44646C13.077 7.44604 13.1405 7.42346 13.1874 7.38359C13.2344 7.34373 13.261 7.28978 13.2615 7.2334C13.284 6.38911 12.9749 5.68085 12.3687 5.11339C11.7594 4.54593 10.9092 4.22766 9.82384 4.16443H9.78818ZM10.1992 5.30998C9.85699 5.30148 9.84386 5.73611 10.1829 5.74461C11.0075 5.78074 11.4078 6.13461 11.4604 6.86253C11.4615 6.91778 11.4881 6.97046 11.5344 7.00929C11.5807 7.04812 11.6431 7.07001 11.7081 7.07028H11.7181C11.7516 7.06906 11.7844 7.0622 11.8147 7.05008C11.845 7.03797 11.8721 7.02086 11.8946 6.99974C11.917 6.97862 11.9342 6.95391 11.9453 6.92707C11.9564 6.90023 11.961 6.87179 11.959 6.8434C11.9002 5.89444 11.2908 5.35993 10.2092 5.31051H10.1992V5.30998Z" fill="white"/>
</svg>
