<svg width="18" height="13" viewBox="0 0 18 13" fill="none" xmlns="http://www.w3.org/2000/svg">
<path d="M9.01112 13H8.99314C8.93739 13 3.35931 12.9889 1.95197 12.5946C1.57171 12.4889 1.22503 12.282 0.946638 11.9946C0.668246 11.7072 0.46791 11.3494 0.365684 10.957C0.112619 9.48406 -0.00958722 7.99033 0.000586491 6.49443C-0.0059469 4.99609 0.119566 3.50023 0.375576 2.02534C0.48069 1.63231 0.681952 1.27374 0.960048 0.984067C1.23814 0.694389 1.58374 0.483318 1.96366 0.371111C3.33233 8.29497e-08 8.75664 0 8.98685 0H9.00573C9.06238 0 14.6549 0.0111331 16.0478 0.405438C16.8203 0.62161 17.4237 1.24415 17.6323 2.04111C17.8931 3.51998 18.0163 5.0202 17.9983 6.5232C18.0046 8.01973 17.8788 9.51374 17.6224 10.9867C17.5188 11.3787 17.3177 11.7359 17.0389 12.0228C16.7602 12.3097 16.4135 12.5164 16.0334 12.6224C14.6665 12.9963 9.24133 13 9.01112 13ZM7.21261 3.71574L7.20812 9.2824L11.895 6.49907L7.21261 3.71574Z" fill="white"/>
</svg>
