<svg width="77" height="24" viewBox="0 0 77 24" fill="none" xmlns="http://www.w3.org/2000/svg">
<path fill-rule="evenodd" clip-rule="evenodd" d="M5.97013 23.9026H7.76177V14.3416H5.97013V23.9026ZM12.5377 23.7592H14.1424V17.7268L20.897 23.9026V14.485H19.2967V20.4143L12.5377 14.3416V23.7592ZM24.5602 21.4436C25.4336 22.1233 26.482 22.5162 27.6059 22.5162C28.7006 22.5162 29.4686 22.1398 29.4686 21.3084C29.4686 20.5839 28.9788 20.3 28.1211 19.9826L26.7325 19.5008C25.4523 19.0466 24.4787 18.3833 24.4787 16.8588C24.4787 15.2282 25.9526 14.3416 27.715 14.3416C28.7948 14.3416 29.7789 14.6127 30.5476 15.093V16.7102C29.7482 16.1201 28.8733 15.7137 27.7494 15.7137C26.7818 15.7137 26.0588 16.0745 26.0588 16.8267C26.0588 17.5064 26.5126 17.7783 27.312 18.0517L28.8591 18.594C30.3584 19.1206 31.0463 19.937 31.0463 21.28C31.0463 22.9696 29.5583 23.9026 27.6059 23.9026C26.3227 23.9026 25.2317 23.5441 24.5602 23.0914V21.4436ZM35.2263 23.9026H37.0172V14.3416H35.2263V23.9026ZM45.4191 22.4557C47.438 22.4557 48.517 21.162 48.517 19.1198C48.517 17.0627 47.4373 15.7735 45.4191 15.7735H43.4225V22.4557H45.4191ZM41.7924 14.3416H45.4789C48.3166 14.3416 50.1516 16.2089 50.1516 19.1198C50.1516 22.033 48.3166 23.9026 45.4789 23.9026H41.7924V14.3416ZM59.1083 14.3416V15.7735H54.7736V18.0741H58.6612V19.4896H54.7728V22.4557H59.1083V23.9026H53.1375V14.3416H59.1083ZM65.4658 18.6709H67.2432C68.2953 18.6709 68.8883 18.0943 68.8883 17.2076C68.8883 16.321 68.2953 15.7436 67.2432 15.7436H65.4658V18.6717V18.6709ZM65.4658 20.0229V23.9026H63.8843V14.3416H67.2732C69.2054 14.3416 70.4556 15.3358 70.4556 17.2076C70.4556 18.8084 69.7617 19.7279 68.2834 19.9639L71.6461 23.9026H69.8469L66.5912 20.0237H65.4666L65.4658 20.0229ZM5.34425 4.92244C6.04491 4.66623 6.59077 3.89762 6.59077 2.84067C6.59077 1.07935 5.34425 0.166571 3.34997 0.166571H0V9.99875H3.66104C5.65532 9.99875 6.90184 9.02174 6.90184 7.18049C6.90184 6.13923 6.24755 5.22645 5.34425 4.92244ZM1.57329 4.29799V1.6082H3.33502C4.44171 1.6082 5.03319 2.00856 5.03319 2.93703C5.03319 3.8655 4.44096 4.29799 3.33502 4.29799H1.57329ZM1.57329 5.67537H3.62964C4.72137 5.67537 5.31285 6.21916 5.31285 7.11625C5.31285 7.99691 4.72062 8.55788 3.63038 8.55788H1.57404V5.67463L1.57329 5.67537ZM14.2112 10.1586C16.5016 10.1586 18.0442 8.78122 18.0442 6.09143V0.166571H16.4238V5.89871C16.4238 7.78851 15.6447 8.66992 14.2112 8.66992C12.7778 8.66992 11.9993 7.78851 11.9993 5.89871V0.166571H10.3789V6.07499C10.3789 8.78122 11.9365 10.1586 14.2112 10.1586ZM21.8593 9.29363C22.5293 9.77467 23.6203 10.1586 24.8975 10.1586C26.8454 10.1586 28.3252 9.16515 28.3252 7.37246C28.3252 5.94726 27.6403 5.08229 26.144 4.52207L24.6021 3.94542C23.8072 3.65784 23.3556 3.36952 23.3556 2.64871C23.3556 1.84797 24.072 1.46403 25.0381 1.46403C26.1597 1.46403 27.0323 1.89577 27.8272 2.52098V0.806713C27.0637 0.295048 26.0819 0.0067226 25.0067 0.0067226C23.2464 0.0067226 21.7816 0.951622 21.7816 2.68083C21.7816 4.29799 22.7477 5.00237 24.0248 5.48266L25.4119 5.99507C26.2689 6.3312 26.7519 6.63596 26.7519 7.40458C26.7519 8.28524 25.9885 8.68561 24.8975 8.68561C23.7758 8.68561 22.732 8.2688 21.8593 7.54874V9.29363ZM34.1151 0.166571H32.4955V9.99801H34.1151V0.166571ZM38.7378 9.98606H40.2991V3.58987L46.8705 10.1384V0.151632H45.3136V6.43876L38.7378 0V9.98606ZM56.9959 0.168812V1.64106H52.789V4.00742H56.5615V5.46324H52.789V8.51306H56.9959V10.001H51.2008V0.168812H56.9959ZM60.7684 9.28691C61.4384 9.76794 62.5286 10.1519 63.8065 10.1519C65.7537 10.1519 67.2343 9.15918 67.2343 7.36573C67.2343 5.94054 66.5486 5.07631 65.0531 4.51535L63.5104 3.93945C62.7155 3.65112 62.2639 3.3628 62.2639 2.64198C62.2639 1.84125 62.9802 1.45731 63.9464 1.45731C65.068 1.45731 65.9406 1.8898 66.7355 2.51425V0.800737C65.972 0.288325 64.9902 0 63.915 0C62.1547 0 60.6899 0.944899 60.6899 2.6741C60.6899 4.29126 61.656 4.99564 62.9331 5.47593L64.3202 5.98835C65.1772 6.32448 65.6602 6.62924 65.6602 7.39785C65.6602 8.27851 64.8975 8.67888 63.8058 8.67888C62.6841 8.67888 61.6403 8.26283 60.7684 7.54202V9.28691ZM70.5536 9.28691C71.2236 9.76794 72.3146 10.1519 73.5917 10.1519C75.5397 10.1519 77.0195 9.15918 77.0195 7.36573C77.0195 5.94054 76.3338 5.07631 74.8383 4.51535L73.2956 3.93945C72.5015 3.65112 72.0491 3.3628 72.0491 2.64198C72.0491 1.84125 72.7662 1.45731 73.7316 1.45731C74.8532 1.45731 75.7266 1.8898 76.5207 2.51425V0.800737C75.758 0.288325 74.7762 0 73.7009 0C71.9399 0 70.4758 0.944899 70.4758 2.6741C70.4758 4.29126 71.4419 4.99564 72.7191 5.47593L74.1062 5.98835C74.9631 6.32448 75.4462 6.62924 75.4462 7.39785C75.4462 8.27851 74.6827 8.67888 73.5917 8.67888C72.4701 8.67888 71.4262 8.26283 70.5536 7.54202V9.28691Z" fill="#111111"/>
</svg>
