<svg width="27" height="33" viewBox="0 0 27 33" fill="none" xmlns="http://www.w3.org/2000/svg">
<path d="M16.3806 0.483452C16.2241 0.329931 16.0382 0.208182 15.8334 0.125211C15.6287 0.0422402 15.4091 -0.000312591 15.1875 1.72866e-06H3.375C1.51369 1.72866e-06 0 1.48005 0 3.3V29.7C0 31.52 1.51369 33 3.375 33H23.625C25.4863 33 27 31.52 27 29.7V11.55C27.0003 11.3333 26.9568 11.1186 26.8719 10.9184C26.7871 10.7182 26.6626 10.5364 26.5056 10.3835L16.3806 0.483452ZM3.375 3.3H14.4889L23.625 12.2331L23.6284 27.3702L19.2949 23.133C19.8855 22.1513 20.25 21.0194 20.25 19.8C20.25 16.1601 17.2226 13.2 13.5 13.2C9.77737 13.2 6.75 16.1601 6.75 19.8C6.75 23.4399 9.77737 26.4 13.5 26.4C14.7471 26.4 15.9047 26.0436 16.9087 25.4661L21.2389 29.7H3.375V3.3ZM13.5 23.1C11.6387 23.1 10.125 21.6199 10.125 19.8C10.125 17.98 11.6387 16.5 13.5 16.5C15.3613 16.5 16.875 17.98 16.875 19.8C16.875 21.6199 15.3613 23.1 13.5 23.1Z" fill="#F9AF31"/>
</svg>
