<svg width="41" height="28" viewBox="0 0 41 28" fill="none" xmlns="http://www.w3.org/2000/svg">
<path d="M28.4722 14C28.4722 18.3523 24.9061 21.875 20.5 21.875C16.0939 21.875 12.5278 18.3523 12.5278 14C12.5278 9.64766 16.0939 6.125 20.5 6.125C24.9061 6.125 28.4722 9.64766 28.4722 14ZM19.3611 11.75V16.25H18.7917C18.1653 16.25 17.6528 16.7563 17.6528 17.375C17.6528 17.9937 18.1653 18.5 18.7917 18.5H22.2083C22.8347 18.5 23.3472 17.9937 23.3472 17.375C23.3472 16.7563 22.8347 16.25 22.2083 16.25H21.6389V10.625C21.6389 10.0063 21.1264 9.5 20.5 9.5H19.3611C18.7347 9.5 18.2222 10.0063 18.2222 10.625C18.2222 11.2437 18.7347 11.75 19.3611 11.75ZM0 5C0 2.51445 2.03932 0.5 4.55556 0.5H36.4444C38.9571 0.5 41 2.51445 41 5V23C41 25.482 38.9571 27.5 36.4444 27.5H4.55556C2.03932 27.5 0 25.482 0 23V5ZM3.41667 8.375V19.625C5.9329 19.625 7.97222 21.643 7.97222 24.125H33.0278C33.0278 21.643 35.0707 19.625 37.5833 19.625V8.375C35.0707 8.375 33.0278 6.35703 33.0278 3.875H7.97222C7.97222 6.35703 5.9329 8.375 3.41667 8.375Z" fill="#F9AF31"/>
</svg>
