<svg width="33" height="33" viewBox="0 0 33 33" fill="none" xmlns="http://www.w3.org/2000/svg">
<path d="M3.14286 26.7143V9.42857H28.2857V14.5986C29.4171 14.9443 30.4857 15.4471 31.4286 16.1229V9.42857C31.4286 7.68429 30.03 6.28571 28.2857 6.28571H22V3.14286C22 1.39857 20.6014 0 18.8571 0H12.5714C10.8271 0 9.42857 1.39857 9.42857 3.14286V6.28571H3.14286C1.39857 6.28571 0.0157143 7.68429 0.0157143 9.42857L0 26.7143C0 28.4586 1.39857 29.8571 3.14286 29.8571H15.2114C14.74 28.8829 14.4257 27.83 14.2686 26.7143H3.14286ZM12.5714 3.14286H18.8571V6.28571H12.5714V3.14286Z" fill="#F9AF31"/>
<path d="M25.1429 17.2857C20.8057 17.2857 17.2857 20.8057 17.2857 25.1429C17.2857 29.48 20.8057 33 25.1429 33C29.48 33 33 29.48 33 25.1429C33 20.8057 29.48 17.2857 25.1429 17.2857ZM27.7357 28.8357L24.3571 25.4571V20.4286H25.9286V24.8129L28.8357 27.72L27.7357 28.8357Z" fill="#F9AF31"/>
</svg>
