<svg width="203" height="18" viewBox="0 0 203 18" fill="none" xmlns="http://www.w3.org/2000/svg">
<path d="M39.5802 9.17881H42.4505V15.3576C40.7534 16.6689 38.365 17.3245 36.0394 17.3245C30.9692 17.3245 27.2189 13.9868 27.2189 9.33775C27.2189 4.70861 30.9692 1.35099 36.0813 1.35099C38.8259 1.35099 41.1096 2.22517 42.66 3.87417L40.7325 5.64238C39.4545 4.43046 37.9669 3.87417 36.228 3.87417C32.7501 3.87417 30.2988 6.11921 30.2988 9.33775C30.2988 12.4768 32.7501 14.8013 36.207 14.8013C37.3803 14.8013 38.5117 14.5828 39.5802 14.0066V9.17881Z" fill="white"/>
<path d="M53.3242 5.1457V7.78808C53.0728 7.74834 52.8633 7.72848 52.6538 7.72848C50.4329 7.72848 49.0292 8.96027 49.0292 11.3841V17.1258H46.117V5.28477H48.9035V7.01325C49.7206 5.76159 51.25 5.1457 53.3242 5.1457Z" fill="white"/>
<path d="M67.4244 12.0795H57.6192C57.9754 13.8079 59.4839 14.9205 61.6628 14.9205C63.0665 14.9205 64.156 14.5033 65.0569 13.6291L66.6283 15.3377C65.4969 16.6093 63.7579 17.2649 61.6 17.2649C57.4097 17.2649 54.707 14.7219 54.707 11.1854C54.707 7.64901 57.4516 5.12583 61.16 5.12583C64.8055 5.12583 67.4663 7.54967 67.4663 11.245C67.4873 11.4834 67.4663 11.8212 67.4244 12.0795ZM57.6192 10.2517H64.7007C64.4703 8.54305 63.0875 7.35099 61.16 7.35099C59.2744 7.35099 57.8916 8.50331 57.6192 10.2517Z" fill="white"/>
<path d="M91.1622 10.3311V17.106H88.25V10.6887C88.25 8.58278 87.2233 7.56954 85.4425 7.56954C83.515 7.56954 82.195 8.76159 82.195 11.1258V17.1258H79.2828V10.6887C79.2828 8.58278 78.2562 7.56954 76.4753 7.56954C74.5269 7.56954 73.2279 8.76159 73.2279 11.1258V17.1258H70.3157V5.28477H73.1022V6.7947C74.045 5.72185 75.4906 5.1457 77.1877 5.1457C79.0105 5.1457 80.5399 5.78146 81.3989 7.11258C82.4046 5.90066 84.0807 5.1457 86.071 5.1457C89.0671 5.1457 91.1622 6.75497 91.1622 10.3311Z" fill="white"/>
<path d="M94.3258 1.66887C94.3258 0.735099 95.122 0 96.1905 0C97.259 0 98.0551 0.695364 98.0551 1.5894C98.0551 2.56291 97.28 3.31788 96.1905 3.31788C95.122 3.31788 94.3258 2.60265 94.3258 1.66887ZM94.7239 5.28477H97.6361V17.1258H94.7239V5.28477Z" fill="white"/>
<path d="M115.382 7.11258C115.382 10.5298 112.721 12.6358 108.405 12.6358H104.718V17.106H101.68V1.5894H108.405C112.7 1.5894 115.382 3.6755 115.382 7.11258ZM112.302 7.11258C112.302 5.16556 110.919 4.03311 108.258 4.03311H104.697V10.1921H108.258C110.94 10.1921 112.302 9.0596 112.302 7.11258Z" fill="#F9AF31"/>
<path d="M129.88 12.0795H120.075C120.431 13.8079 121.94 14.9205 124.119 14.9205C125.522 14.9205 126.612 14.5033 127.513 13.6291L129.084 15.3377C127.953 16.6093 126.214 17.2649 124.056 17.2649C119.865 17.2649 117.163 14.7219 117.163 11.1854C117.163 7.64901 119.907 5.12583 123.616 5.12583C127.261 5.12583 129.922 7.54967 129.922 11.245C129.922 11.4834 129.901 11.8212 129.88 12.0795ZM120.054 10.2517H127.156C126.905 8.54305 125.543 7.35099 123.616 7.35099C121.73 7.35099 120.347 8.50331 120.054 10.2517Z" fill="#F9AF31"/>
<path d="M139.958 5.1457V7.78808C139.706 7.74834 139.497 7.72848 139.287 7.72848C137.066 7.72848 135.663 8.96027 135.663 11.3841V17.1258H132.75V5.28477H135.537V7.01325C136.354 5.76159 137.883 5.1457 139.958 5.1457Z" fill="#F9AF31"/>
<path d="M141.361 15.9338L142.493 13.8278C143.582 14.5232 145.279 15 146.851 15C148.694 15 149.47 14.5033 149.47 13.6887C149.47 11.4238 141.759 13.5497 141.759 8.84106C141.759 6.59603 143.897 5.1457 147.249 5.1457C148.904 5.1457 150.81 5.52318 151.921 6.15894L150.789 8.2649C149.595 7.60927 148.401 7.37086 147.207 7.37086C145.426 7.37086 144.588 7.92715 144.588 8.70199C144.588 11.106 152.298 8.96027 152.298 13.6093C152.298 15.8344 150.14 17.2649 146.641 17.2649C144.567 17.2649 142.493 16.6887 141.361 15.9338Z" fill="#F9AF31"/>
<path d="M154.016 11.2053C154.016 7.64901 156.823 5.1457 160.658 5.1457C164.534 5.1457 167.32 7.64901 167.32 11.2053C167.32 14.7616 164.534 17.2848 160.658 17.2848C156.823 17.2649 154.016 14.7417 154.016 11.2053ZM164.387 11.2053C164.387 8.9404 162.795 7.50993 160.678 7.50993C158.583 7.50993 156.991 8.96027 156.991 11.2053C156.991 13.4503 158.562 14.9007 160.658 14.9007C162.795 14.9007 164.387 13.4503 164.387 11.2053Z" fill="#F9AF31"/>
<path d="M182.426 10.3311V17.106H179.514V10.6887C179.514 8.58278 178.424 7.56954 176.539 7.56954C174.464 7.56954 173.061 8.76159 173.061 11.1457V17.1258H170.148V5.28477H172.935V6.81457C173.899 5.72185 175.407 5.1457 177.23 5.1457C180.205 5.1457 182.426 6.75497 182.426 10.3311Z" fill="#F9AF31"/>
<path d="M196.505 10.1722V17.106H193.74V15.6556C193.048 16.6689 191.686 17.245 189.822 17.245C186.972 17.245 185.17 15.755 185.17 13.6887C185.17 11.7219 186.574 10.1722 190.366 10.1722H193.572V9.99338C193.572 8.38411 192.545 7.43046 190.471 7.43046C189.067 7.43046 187.622 7.86755 186.679 8.60265L185.527 6.57616C186.868 5.60265 188.795 5.10596 190.806 5.10596C194.41 5.1457 196.505 6.75497 196.505 10.1722ZM193.572 13.4106V12.0397H190.555C188.565 12.0397 188.02 12.755 188.02 13.6093C188.02 14.6027 188.9 15.2583 190.408 15.2583C191.833 15.2583 193.09 14.6225 193.572 13.4106Z" fill="#F9AF31"/>
<path d="M200.088 0.655629H203V17.106H200.088V0.655629Z" fill="#F9AF31"/>
<path d="M15.7795 3.23841C15.2348 2.48344 14.313 2.04636 13.3492 2.04636C12.7416 2.04636 12.155 2.22517 11.6731 2.54305C10.3322 3.43709 10.0179 5.18543 10.9398 6.45695L18.587 16.8079C19.1317 17.5629 20.0536 18 21.0174 18C21.6249 18 22.2116 17.8212 22.6935 17.5033C23.3429 17.0861 23.762 16.4305 23.9086 15.6954C24.0553 14.9603 23.8667 14.2053 23.4268 13.5894L15.7795 3.23841Z" fill="white"/>
<path d="M5.36677 3.23841C4.82204 2.48344 3.90018 2.04636 2.93642 2.04636C2.32884 2.04636 1.7422 2.22517 1.26032 2.54305C-0.0805602 3.43709 -0.394829 5.18543 0.527026 6.45695L8.15329 16.8079C8.69802 17.5629 9.61987 18 10.5836 18C11.1912 18 11.7779 17.8212 12.2597 17.5033C12.9092 17.0861 13.3282 16.4305 13.4749 15.6954C13.6216 14.9603 13.433 14.2053 12.993 13.5894L5.36677 3.23841Z" fill="#F9AF31"/>
</svg>
