<svg width="35" height="35" viewBox="0 0 35 35" fill="none" xmlns="http://www.w3.org/2000/svg">
<path d="M17.5 0.862549C8.20202 0.862549 0.637501 8.42707 0.637501 17.725V24.7112C0.637501 26.4379 2.15007 27.8425 4.01 27.8425H5.69625C6.14347 27.8425 6.57238 27.6649 6.88861 27.3487C7.20484 27.0324 7.3825 26.6035 7.3825 26.1563V17.4839C7.3825 17.0367 7.20484 16.6078 6.88861 16.2916C6.57238 15.9753 6.14347 15.7977 5.69625 15.7977H4.16514C5.10269 9.27188 10.7179 4.23505 17.5 4.23505C24.2821 4.23505 29.8973 9.27188 30.8349 15.7977H29.3038C28.8565 15.7977 28.4276 15.9753 28.1114 16.2916C27.7952 16.6078 27.6175 17.0367 27.6175 17.4839V27.8425C27.6175 29.7025 26.1049 31.215 24.245 31.215H20.8725V29.5288H14.1275V34.5875H24.245C27.9649 34.5875 30.99 31.5624 30.99 27.8425C32.8499 27.8425 34.3625 26.4379 34.3625 24.7112V17.725C34.3625 8.42707 26.798 0.862549 17.5 0.862549Z" fill="#F9AF31"/>
</svg>
