<svg width="53" height="37" viewBox="0 0 53 37" fill="none" xmlns="http://www.w3.org/2000/svg">
<path d="M34.9081 2.76463C33.703 1.0137 31.6636 0 29.5316 0C28.1874 0 26.8897 0.414695 25.8236 1.15193C22.8573 3.2254 22.1621 7.2802 24.2014 10.2291L41.1188 34.2354C42.3239 35.9863 44.3633 37 46.4953 37C47.8395 37 49.1372 36.5853 50.2033 35.8481C51.6401 34.8805 52.5671 33.3599 52.8915 31.655C53.216 29.9502 52.7988 28.1993 51.8255 26.7709L34.9081 2.76463Z" fill="white"/>
<path d="M11.8726 2.76463C10.6675 1.0137 8.62811 0 6.49605 0C5.15193 0 3.85415 0.414695 2.78813 1.15193C-0.178218 3.2254 -0.873455 7.2802 1.16591 10.2291L18.037 34.2354C19.2421 35.9863 21.2814 37 23.4135 37C24.7576 37 26.0554 36.5853 27.1214 35.8481C28.5582 34.8805 29.4852 33.3599 29.8097 31.655C30.1341 29.9502 29.717 28.1993 28.7436 26.7709L11.8726 2.76463Z" fill="#F9AF31"/>
</svg>
