<svg width="300" height="28" viewBox="0 0 300 28" fill="none" xmlns="http://www.w3.org/2000/svg">
<path d="M58.4929 14.2781H62.7347V23.8896C60.2268 25.9294 56.697 26.9492 53.2602 26.9492C45.7673 26.9492 40.225 21.7572 40.225 14.5254C40.225 7.3245 45.7673 2.10155 53.3221 2.10155C57.3782 2.10155 60.7531 3.46137 63.0443 6.02649L60.1958 8.77704C58.3071 6.89183 56.1088 6.02649 53.5389 6.02649C48.3991 6.02649 44.7765 9.51876 44.7765 14.5254C44.7765 19.4084 48.3991 23.0243 53.5079 23.0243C55.2418 23.0243 56.9138 22.6843 58.4929 21.7881V14.2781Z" fill="white"/>
<path d="M78.8042 8.00441V12.1148C78.4327 12.053 78.1231 12.0221 77.8134 12.0221C74.5314 12.0221 72.4569 13.9382 72.4569 17.7086V26.6402H68.1532V8.22075H72.2712V10.9095C73.4787 8.96247 75.739 8.00441 78.8042 8.00441Z" fill="white"/>
<path d="M99.642 18.7903H85.1516C85.6779 21.479 87.9072 23.2097 91.1273 23.2097C93.2018 23.2097 94.8118 22.5607 96.1432 21.2009L98.4654 23.8587C96.7934 25.8366 94.2235 26.8565 91.0344 26.8565C84.8419 26.8565 80.8478 22.9007 80.8478 17.3996C80.8478 11.8985 84.9038 7.97351 90.3842 7.97351C95.7717 7.97351 99.7039 11.7439 99.7039 17.4923C99.7349 17.8631 99.7039 18.3885 99.642 18.7903ZM85.1516 15.947H95.6169C95.2763 13.2892 93.2327 11.4349 90.3842 11.4349C87.5976 11.4349 85.5541 13.2274 85.1516 15.947Z" fill="white"/>
<path d="M134.722 16.0706V26.6093H130.419V16.6269C130.419 13.351 128.901 11.7748 126.27 11.7748C123.421 11.7748 121.471 13.6291 121.471 17.3068V26.6402H117.167V16.6269C117.167 13.351 115.65 11.7748 113.018 11.7748C110.138 11.7748 108.219 13.6291 108.219 17.3068V26.6402H103.915V8.22075H108.033V10.5695C109.426 8.90066 111.563 8.00441 114.07 8.00441C116.764 8.00441 119.024 8.99338 120.294 11.064C121.78 9.17881 124.257 8.00441 127.199 8.00441C131.626 8.00441 134.722 10.5077 134.722 16.0706Z" fill="white"/>
<path d="M139.398 2.59603C139.398 1.14349 140.574 0 142.153 0C143.733 0 144.909 1.08168 144.909 2.47241C144.909 3.98676 143.763 5.16115 142.153 5.16115C140.574 5.16115 139.398 4.04856 139.398 2.59603ZM139.986 8.22075H144.29V26.6402H139.986V8.22075Z" fill="white"/>
<path d="M170.515 11.064C170.515 16.3797 166.583 19.6556 160.205 19.6556H154.755V26.6093H150.266V2.47241H160.205C166.552 2.47241 170.515 5.71744 170.515 11.064ZM165.964 11.064C165.964 8.03532 163.92 6.27373 159.988 6.27373H154.724V15.8543H159.988C163.951 15.8543 165.964 14.0927 165.964 11.064Z" fill="#F9AF31"/>
<path d="M191.941 18.7903H177.451C177.977 21.479 180.206 23.2097 183.426 23.2097C185.501 23.2097 187.111 22.5607 188.442 21.2009L190.764 23.8587C189.092 25.8366 186.523 26.8565 183.333 26.8565C177.141 26.8565 173.147 22.9007 173.147 17.3996C173.147 11.8985 177.203 7.97351 182.683 7.97351C188.071 7.97351 192.003 11.7439 192.003 17.4923C192.003 17.8631 191.972 18.3885 191.941 18.7903ZM177.42 15.947H187.916C187.544 13.2892 185.532 11.4349 182.683 11.4349C179.897 11.4349 177.853 13.2274 177.42 15.947Z" fill="#F9AF31"/>
<path d="M206.834 8.00441V12.1148C206.462 12.053 206.153 12.0221 205.843 12.0221C202.561 12.0221 200.487 13.9382 200.487 17.7086V26.6402H196.183V8.22075H200.301V10.9095C201.508 8.96247 203.769 8.00441 206.834 8.00441Z" fill="#F9AF31"/>
<path d="M208.908 24.7859L210.58 21.5099C212.19 22.5916 214.698 23.3333 217.021 23.3333C219.745 23.3333 220.891 22.5607 220.891 21.2936C220.891 17.7704 209.497 21.0773 209.497 13.7528C209.497 10.2605 212.655 8.00441 217.609 8.00441C220.055 8.00441 222.873 8.59161 224.514 9.58057L222.842 12.8565C221.077 11.8366 219.312 11.4658 217.547 11.4658C214.915 11.4658 213.677 12.3311 213.677 13.5364C213.677 17.2759 225.071 13.9382 225.071 21.17C225.071 24.6313 221.882 26.8565 216.711 26.8565C213.646 26.8565 210.58 25.9603 208.908 24.7859Z" fill="#F9AF31"/>
<path d="M227.61 17.4305C227.61 11.8985 231.759 8.00441 237.425 8.00441C243.153 8.00441 247.271 11.8985 247.271 17.4305C247.271 22.9625 243.153 26.8874 237.425 26.8874C231.759 26.8565 227.61 22.9316 227.61 17.4305ZM242.936 17.4305C242.936 13.9073 240.583 11.6821 237.456 11.6821C234.36 11.6821 232.006 13.9382 232.006 17.4305C232.006 20.9227 234.329 23.1788 237.425 23.1788C240.583 23.1788 242.936 20.9227 242.936 17.4305Z" fill="#F9AF31"/>
<path d="M269.595 16.0706V26.6093H265.291V16.6269C265.291 13.351 263.681 11.7748 260.894 11.7748C257.829 11.7748 255.755 13.6291 255.755 17.3377V26.6402H251.451V8.22075H255.569V10.6004C256.993 8.90066 259.222 8.00441 261.916 8.00441C266.313 8.00441 269.595 10.5077 269.595 16.0706Z" fill="#F9AF31"/>
<path d="M290.402 15.8234V26.6093H286.315V24.3532C285.293 25.9294 283.28 26.8256 280.525 26.8256C276.314 26.8256 273.651 24.5077 273.651 21.2936C273.651 18.234 275.725 15.8234 281.33 15.8234H286.067V15.5453C286.067 13.0419 284.55 11.5585 281.484 11.5585C279.41 11.5585 277.274 12.2384 275.88 13.3819L274.177 10.2296C276.159 8.71523 279.007 7.94261 281.98 7.94261C287.305 8.00442 290.402 10.5077 290.402 15.8234ZM286.067 20.8609V18.7285H281.608C278.667 18.7285 277.862 19.8411 277.862 21.17C277.862 22.7152 279.162 23.7351 281.392 23.7351C283.497 23.7351 285.355 22.7461 286.067 20.8609Z" fill="#F9AF31"/>
<path d="M295.696 1.01987H300V26.6093H295.696V1.01987Z" fill="#F9AF31"/>
<path d="M23.3195 5.03753C22.5145 3.86313 21.1522 3.18322 19.7279 3.18322C18.83 3.18322 17.963 3.46137 17.2509 3.95585C15.2693 5.34658 14.8048 8.06623 16.1672 10.0442L27.4685 26.1457C28.2735 27.3201 29.6359 28 31.0601 28C31.958 28 32.825 27.7219 33.5371 27.2274C34.497 26.5784 35.1162 25.5585 35.333 24.415C35.5497 23.2715 35.271 22.0971 34.6208 21.1391L23.3195 5.03753Z" fill="white"/>
<path d="M7.93118 5.03753C7.12616 3.86313 5.76381 3.18322 4.33954 3.18322C3.44163 3.18322 2.57468 3.46137 1.86254 3.95585C-0.119054 5.34658 -0.583491 8.06623 0.778857 10.0442L12.0492 26.1457C12.8542 27.3201 14.2166 28 15.6408 28C16.5387 28 17.4057 27.7219 18.1178 27.2274C19.0777 26.5784 19.6969 25.5585 19.9137 24.415C20.1304 23.2715 19.8517 22.0971 19.2015 21.1391L7.93118 5.03753Z" fill="#F9AF31"/>
</svg>
